# xmcd
#
# Track frame offsets:
#	150
#	18650
#	35395
#	57587
#	80840
#	97220
#	116975
#	137072
#	160170
#	174427
#
# Disc length: 2614 seconds
#
# Revision: 3996789274
# Processed by: cddbd v1.5.2PL0 Copyright (c) Steve Scherf et al.
# Submitted via: EZCDAudioConverter 8.0.2.1
#
DISCID=8e0a340a
DTITLE=Tuấn Vũ - Tuyệt Phẩm Để Đời 4
DYEAR=1993
DGENRE=World Pop
TTITLE0=Hận Đồ Bàn
TTITLE1=Xin hãy quên tôi
TTITLE2=Đêm lang thang
TTITLE3=Chuyến đi về sáng
TTITLE4=Người xa về thành phố
TTITLE5=Thương hận
TTITLE6=Lời đắng cho cuộc tình
TTITLE7=Xóm đêm
TTITLE8=Về đâu mái tóc người thương
TTITLE9=Những ngày xưa thân ái
EXTD=
EXTT0=
EXTT1=
EXTT2=
EXTT3=
EXTT4=
EXTT5=
EXTT6=
EXTT7=
EXTT8=
EXTT9=
PLAYORDER=
